<svg width="2604" height="2161" viewBox="0 0 2604 2161" fill="none" xmlns="http://www.w3.org/2000/svg">
<rect width="2604" height="2161" fill="#1E1E1E"/>
<ellipse cx="1302" cy="1722.09" rx="1235.82" ry="438.796" fill="#0D9488"/>
<path d="M66.179 442.198C66.179 430.77 66.179 425.056 68.5464 421.203C70.6245 417.821 73.8664 415.343 77.6758 414.225C82.0154 412.953 87.6421 414.483 98.8956 417.545C1017.65 667.49 1556.39 667.687 2505.29 417.226C2516.49 414.269 2522.09 412.79 2526.41 414.08C2530.19 415.213 2533.41 417.692 2535.47 421.065C2537.82 424.907 2537.82 430.58 2537.82 441.925V1742.86C2537.82 1750.02 2537.82 1753.6 2536.57 1756.58C2535.46 1759.21 2533.66 1761.5 2531.38 1763.2C2528.78 1765.13 2525.24 1766 2518.16 1767.75C1571.89 2000.65 1032.43 2000.09 85.8584 1767.74C78.768 1766 75.2228 1765.13 72.6273 1763.2C70.3405 1761.49 68.5435 1759.2 67.436 1756.58C66.179 1753.59 66.179 1750.01 66.179 1742.85V442.198Z" fill="#0D9488"/>
<ellipse cx="1302" cy="464.692" rx="1302" ry="464.692" fill="#EFEFE5"/>
<ellipse cx="1302" cy="430.164" rx="1235.82" ry="366.862" fill="#E8E3C6"/>
<circle cx="1303.5" cy="1546.5" r="512" fill="#1B5E52"/>
<circle cx="1303.5" cy="1546.5" r="488.477" stroke="white" stroke-width="1.53385"/>
<circle cx="1303.5" cy="1546.5" r="466.336" stroke="white" stroke-opacity="0.4" stroke-width="0.306771"/>
<circle cx="1303.5" cy="1512.37" r="273.067" fill="#0D9488" fill-opacity="0.2"/>
<path d="M1044.19 1836.19C1041.89 1834.12 1040.14 1831.8 1038.95 1829.25C1037.79 1826.67 1037.16 1823.99 1037.07 1821.22C1037.04 1818.44 1037.54 1815.67 1038.6 1812.92C1039.65 1810.17 1041.28 1807.57 1043.48 1805.12C1045.69 1802.67 1048.11 1800.77 1050.73 1799.44C1053.36 1798.11 1056.06 1797.31 1058.83 1797.06C1061.62 1796.83 1064.35 1797.17 1067.01 1798.09C1069.7 1798.98 1072.2 1800.46 1074.5 1802.53C1076.72 1804.53 1078.35 1806.71 1079.39 1809.07C1080.46 1811.47 1081.03 1813.83 1081.1 1816.16C1081.22 1818.49 1080.92 1820.57 1080.21 1822.42L1075.68 1821.11C1076.65 1818.39 1076.8 1815.7 1076.14 1813.04C1075.47 1810.38 1073.94 1807.97 1071.55 1805.82C1069.15 1803.66 1066.51 1802.31 1063.62 1801.77C1060.73 1801.22 1057.83 1801.5 1054.94 1802.6C1052.08 1803.67 1049.43 1805.56 1046.98 1808.27C1044.57 1810.96 1042.96 1813.79 1042.18 1816.78C1041.39 1819.77 1041.41 1822.67 1042.26 1825.49C1043.13 1828.28 1044.76 1830.76 1047.15 1832.91C1049.28 1834.83 1051.61 1836.08 1054.14 1836.67C1056.71 1837.29 1059.21 1837.24 1061.64 1836.53C1064.11 1835.79 1066.29 1834.37 1068.18 1832.27L1069.79 1830.47L1069.95 1833.47L1057.08 1821.88L1059.84 1818.82L1074.63 1832.14L1072.19 1834.85C1070.27 1836.98 1068.12 1838.61 1065.73 1839.73C1063.37 1840.83 1060.93 1841.43 1058.4 1841.54C1055.88 1841.64 1053.38 1841.24 1050.92 1840.34C1048.51 1839.44 1046.27 1838.06 1044.19 1836.19Z" fill="#9FE1CB"/>
<path d="M1074.25 1856.57L1100.05 1821.07L1122.92 1837.68L1120.32 1841.26L1101.26 1827.41L1092.3 1839.75L1110.4 1852.91L1107.81 1856.48L1089.7 1843.33L1080.66 1855.76L1099.72 1869.61L1097.13 1873.18L1074.25 1856.57Z" fill="#9FE1CB"/>
<path d="M1118.57 1885.99L1140.51 1847.99L1144.59 1850.34L1124.86 1884.52L1141.7 1894.24L1139.49 1898.06L1118.57 1885.99Z" fill="#9FE1CB"/>
<path d="M1154.44 1903.35L1185.74 1868.66L1190.43 1870.56L1188.85 1917.25L1184.26 1915.39L1184.78 1904.04L1166.6 1896.7L1159.03 1905.2L1154.44 1903.35ZM1169.67 1893.17L1184.91 1899.33L1186.1 1872.62L1187.41 1873.15L1169.67 1893.17Z" fill="#9FE1CB"/>
<path d="M1209.36 1924.05L1220.24 1886.12L1208.58 1882.78L1209.79 1878.53L1237.54 1886.48L1236.32 1890.73L1224.77 1887.42L1213.89 1925.35L1209.36 1924.05Z" fill="#9FE1CB"/>
<path d="M1262.6 1937.01C1259.54 1936.79 1256.72 1936.03 1254.14 1934.73C1251.6 1933.4 1249.41 1931.66 1247.56 1929.52C1245.71 1927.34 1244.33 1924.83 1243.39 1922.01C1242.46 1919.14 1242.12 1916.06 1242.36 1912.77C1242.61 1909.49 1243.4 1906.51 1244.74 1903.85C1246.08 1901.16 1247.82 1898.89 1249.97 1897.04C1252.12 1895.15 1254.54 1893.75 1257.25 1892.85C1259.99 1891.95 1262.89 1891.62 1265.95 1891.84C1269 1892.07 1271.8 1892.85 1274.34 1894.18C1276.92 1895.47 1279.13 1897.21 1280.98 1899.4C1282.83 1901.54 1284.22 1904.03 1285.15 1906.85C1286.08 1909.68 1286.43 1912.73 1286.18 1916.02C1285.94 1919.31 1285.15 1922.31 1283.81 1925C1282.47 1927.66 1280.72 1929.93 1278.57 1931.82C1276.43 1933.67 1273.98 1935.06 1271.24 1936C1268.53 1936.9 1265.65 1937.24 1262.6 1937.01ZM1262.92 1932.61C1265.47 1932.8 1267.81 1932.5 1269.96 1931.71C1272.14 1930.93 1274.06 1929.75 1275.71 1928.18C1277.37 1926.61 1278.68 1924.76 1279.67 1922.63C1280.69 1920.5 1281.3 1918.18 1281.48 1915.68C1281.67 1913.21 1281.41 1910.85 1280.71 1908.59C1280.05 1906.34 1279.02 1904.31 1277.62 1902.51C1276.22 1900.72 1274.49 1899.27 1272.45 1898.17C1270.44 1897.08 1268.17 1896.44 1265.62 1896.25C1263.07 1896.06 1260.71 1896.36 1258.53 1897.14C1256.38 1897.93 1254.48 1899.1 1252.83 1900.67C1251.18 1902.25 1249.84 1904.1 1248.82 1906.22C1247.83 1908.36 1247.25 1910.66 1247.06 1913.12C1246.88 1915.63 1247.11 1918.01 1247.77 1920.26C1248.47 1922.52 1249.52 1924.55 1250.93 1926.34C1252.33 1928.14 1254.05 1929.59 1256.1 1930.68C1258.14 1931.78 1260.42 1932.42 1262.92 1932.61Z" fill="#9FE1CB"/>
<path d="M1325.2 1937.6L1320.61 1893.96L1325.3 1893.46L1329.42 1932.71L1348.75 1930.68L1349.21 1935.07L1325.2 1937.6Z" fill="#9FE1CB"/>
<path d="M1386.27 1925.82C1383.32 1926.66 1380.41 1926.92 1377.54 1926.6C1374.7 1926.23 1372.04 1925.36 1369.56 1923.99C1367.08 1922.58 1364.91 1920.71 1363.05 1918.38C1361.19 1916.01 1359.81 1913.25 1358.9 1910.08C1357.99 1906.9 1357.7 1903.84 1358.04 1900.89C1358.36 1897.89 1359.21 1895.16 1360.59 1892.68C1361.95 1890.16 1363.74 1888.02 1365.97 1886.23C1368.23 1884.44 1370.84 1883.12 1373.78 1882.28C1376.72 1881.43 1379.62 1881.2 1382.46 1881.57C1385.33 1881.89 1388.01 1882.75 1390.5 1884.16C1392.97 1885.54 1395.14 1887.39 1396.99 1889.72C1398.84 1892.04 1400.22 1894.79 1401.13 1897.96C1402.04 1901.13 1402.33 1904.22 1402.01 1907.21C1401.67 1910.17 1400.82 1912.9 1399.46 1915.42C1398.09 1917.89 1396.27 1920.05 1394.02 1921.88C1391.79 1923.66 1389.21 1924.97 1386.27 1925.82ZM1385.05 1921.57C1387.5 1920.87 1389.6 1919.78 1391.34 1918.3C1393.12 1916.81 1394.51 1915.04 1395.52 1912.99C1396.52 1910.95 1397.12 1908.76 1397.31 1906.41C1397.53 1904.06 1397.3 1901.68 1396.6 1899.26C1395.92 1896.88 1394.86 1894.76 1393.43 1892.88C1392.03 1891 1390.36 1889.45 1388.42 1888.25C1386.48 1887.05 1384.37 1886.29 1382.07 1885.97C1379.81 1885.64 1377.45 1885.82 1375 1886.52C1372.54 1887.23 1370.43 1888.33 1368.65 1889.82C1366.91 1891.3 1365.54 1893.06 1364.53 1895.1C1363.52 1897.15 1362.91 1899.35 1362.68 1901.7C1362.5 1904.04 1362.74 1906.4 1363.43 1908.78C1364.12 1911.19 1365.16 1913.34 1366.56 1915.23C1368 1917.11 1369.69 1918.64 1371.62 1919.84C1373.56 1921.05 1375.68 1921.81 1377.98 1922.13C1380.28 1922.45 1382.63 1922.26 1385.05 1921.57Z" fill="#9FE1CB"/>
<path d="M1443.69 1911.02C1440.81 1912.19 1437.97 1912.74 1435.15 1912.69C1432.32 1912.61 1429.64 1912 1427.11 1910.86C1424.6 1909.68 1422.33 1908.01 1420.32 1905.86C1418.31 1903.7 1416.68 1901.1 1415.45 1898.04C1414.21 1894.98 1413.57 1891.98 1413.52 1889.04C1413.48 1886.09 1413.95 1883.32 1414.93 1880.72C1415.95 1878.1 1417.45 1875.8 1419.44 1873.81C1421.42 1871.78 1423.85 1870.19 1426.72 1869.03C1429.49 1867.91 1432.16 1867.4 1434.75 1867.5C1437.36 1867.59 1439.73 1868.11 1441.86 1869.07C1444.01 1869.99 1445.75 1871.16 1447.1 1872.61L1443.94 1876.11C1441.92 1874.05 1439.57 1872.73 1436.88 1872.17C1434.2 1871.6 1431.36 1871.92 1428.38 1873.12C1425.39 1874.33 1423.02 1876.11 1421.26 1878.48C1419.51 1880.84 1418.49 1883.56 1418.21 1886.63C1417.91 1889.68 1418.45 1892.89 1419.82 1896.28C1421.17 1899.63 1423.02 1902.31 1425.36 1904.33C1427.7 1906.35 1430.32 1907.6 1433.22 1908.07C1436.11 1908.52 1439.05 1908.13 1442.03 1906.93C1444.69 1905.85 1446.84 1904.31 1448.48 1902.29C1450.16 1900.26 1451.21 1897.99 1451.64 1895.49C1452.06 1892.95 1451.73 1890.37 1450.67 1887.75L1449.77 1885.51L1452.53 1886.68L1436.47 1893.17L1434.93 1889.34L1453.39 1881.89L1454.76 1885.27C1455.83 1887.93 1456.35 1890.58 1456.32 1893.22C1456.27 1895.82 1455.74 1898.28 1454.72 1900.6C1453.71 1902.91 1452.26 1904.98 1450.37 1906.8C1448.5 1908.57 1446.27 1909.98 1443.69 1911.02Z" fill="#9FE1CB"/>
<path d="M1495.33 1888.24C1492.65 1889.79 1489.91 1890.74 1487.11 1891.08C1484.3 1891.39 1481.56 1891.16 1478.89 1890.39C1476.24 1889.56 1473.76 1888.23 1471.47 1886.38C1469.18 1884.53 1467.21 1882.17 1465.56 1879.32C1463.91 1876.46 1462.86 1873.58 1462.4 1870.67C1461.94 1867.76 1462.02 1864.94 1462.63 1862.23C1463.28 1859.5 1464.45 1857.01 1466.14 1854.77C1467.82 1852.48 1470 1850.57 1472.69 1849.02C1475.27 1847.52 1477.85 1846.65 1480.42 1846.39C1483.02 1846.11 1485.44 1846.3 1487.68 1846.96C1489.94 1847.56 1491.83 1848.48 1493.36 1849.73L1490.72 1853.63C1488.44 1851.87 1485.92 1850.9 1483.18 1850.71C1480.45 1850.52 1477.68 1851.23 1474.89 1852.84C1472.11 1854.45 1470.01 1856.55 1468.6 1859.13C1467.19 1861.71 1466.55 1864.55 1466.71 1867.64C1466.84 1870.69 1467.81 1873.8 1469.64 1876.96C1471.45 1880.09 1473.65 1882.49 1476.25 1884.16C1478.85 1885.84 1481.62 1886.71 1484.56 1886.78C1487.48 1886.81 1490.34 1886.03 1493.12 1884.42C1495.61 1882.98 1497.52 1881.15 1498.86 1878.93C1500.24 1876.68 1500.97 1874.29 1501.05 1871.75C1501.1 1869.18 1500.42 1866.67 1499.01 1864.22L1497.8 1862.13L1500.7 1862.9L1485.7 1871.56L1483.64 1867.99L1500.88 1858.04L1502.71 1861.2C1504.14 1863.68 1505.02 1866.23 1505.36 1868.85C1505.67 1871.44 1505.49 1873.95 1504.81 1876.38C1504.13 1878.81 1502.98 1881.06 1501.36 1883.13C1499.76 1885.14 1497.75 1886.85 1495.33 1888.24Z" fill="#9FE1CB"/>
<path d="M1526.29 1868.89L1500.5 1833.39L1523.37 1816.77L1525.97 1820.35L1506.9 1834.19L1515.87 1846.54L1533.98 1833.38L1536.58 1836.95L1518.47 1850.11L1527.5 1862.55L1546.56 1848.7L1549.16 1852.27L1526.29 1868.89Z" fill="#9FE1CB"/>
<path d="M1563.45 1840.32L1534.09 1807.71L1545.3 1797.63C1547.43 1795.71 1549.68 1794.45 1552.04 1793.85C1554.38 1793.22 1556.67 1793.27 1558.92 1794C1561.16 1794.68 1563.18 1796 1564.96 1797.99C1567.04 1800.29 1568.2 1802.82 1568.45 1805.55C1568.72 1808.26 1568.12 1810.89 1566.66 1813.43L1586.21 1819.83L1582.1 1823.53L1561.48 1816.66L1565.07 1815.89L1555.53 1824.48L1566.96 1837.17L1563.45 1840.32ZM1552.57 1821.19L1560.45 1814.1C1561.85 1812.84 1562.84 1811.47 1563.42 1810C1563.97 1808.5 1564.09 1806.99 1563.78 1805.48C1563.44 1803.93 1562.66 1802.47 1561.42 1801.1C1560.19 1799.73 1558.83 1798.81 1557.35 1798.34C1555.88 1797.87 1554.38 1797.85 1552.85 1798.27C1551.3 1798.66 1549.83 1799.49 1548.43 1800.75L1540.55 1807.84L1552.57 1821.19Z" fill="#9FE1CB"/>
<path d="M1131.08 1257.94C1126.73 1261.09 1122.15 1263.22 1117.31 1264.33C1112.48 1265.44 1107.65 1265.59 1102.84 1264.78C1098.02 1263.96 1093.44 1262.23 1089.11 1259.58C1084.83 1256.88 1081.05 1253.28 1077.78 1248.78C1074.51 1244.27 1072.22 1239.59 1070.93 1234.73C1069.65 1229.77 1069.36 1224.92 1070.06 1220.18C1070.78 1215.35 1072.43 1210.83 1075.02 1206.63C1077.56 1202.38 1081.01 1198.67 1085.35 1195.52C1089.69 1192.36 1094.1 1190.28 1098.59 1189.26C1103.13 1188.2 1107.48 1188.02 1111.64 1188.73C1115.76 1189.38 1119.38 1190.77 1122.5 1192.9L1116.08 1204.78C1112.66 1202.46 1108.88 1201.31 1104.74 1201.33C1100.61 1201.34 1096.59 1202.77 1092.68 1205.61C1088.89 1208.37 1086.17 1211.71 1084.54 1215.63C1082.97 1219.51 1082.51 1223.62 1083.17 1227.95C1083.88 1232.24 1085.77 1236.5 1088.85 1240.73C1091.93 1244.97 1095.44 1248.09 1099.4 1250.11C1103.36 1252.04 1107.46 1252.83 1111.7 1252.49C1115.93 1252.15 1119.94 1250.6 1123.74 1247.84C1126.84 1245.6 1129.25 1242.93 1130.99 1239.84C1132.69 1236.7 1133.51 1233.45 1133.47 1230.08C1133.39 1226.66 1132.22 1223.4 1129.98 1220.31L1126.61 1215.67L1134.85 1216.39L1112.38 1232.72L1105.58 1223.36L1134.07 1202.66L1138.5 1208.76C1141.9 1213.43 1144.11 1218.12 1145.13 1222.85C1146.16 1227.58 1146.21 1232.14 1145.27 1236.56C1144.34 1240.88 1142.65 1244.88 1140.19 1248.58C1137.7 1252.22 1134.66 1255.34 1131.08 1257.94Z" fill="white"/>
<path d="M1174.5 1223.78L1148.86 1153.33L1195.66 1136.3L1199.79 1147.65L1165.85 1160L1172.42 1178.06L1204.47 1166.39L1208.6 1177.74L1176.55 1189.41L1183.23 1207.75L1217.17 1195.39L1221.3 1206.74L1174.5 1223.78Z" fill="white"/>
<path d="M1242.76 1198.99L1234.93 1124.44L1248.54 1123.01L1255.11 1185.56L1287.03 1182.2L1288.29 1194.21L1242.76 1198.99Z" fill="white"/>
<path d="M1321.25 1194.21L1329.08 1119.65L1342.69 1121.08L1336.12 1183.63L1368.04 1186.98L1366.78 1198.99L1321.25 1194.21Z" fill="white"/>
<path d="M1417.06 1219.92C1411.89 1218.04 1407.4 1215.37 1403.59 1211.92C1399.78 1208.46 1396.8 1204.48 1394.65 1199.99C1392.5 1195.5 1391.29 1190.7 1391 1185.6C1390.8 1180.46 1391.64 1175.3 1393.53 1170.13C1395.43 1164.9 1398.1 1160.41 1401.53 1156.67C1404.97 1152.92 1408.95 1150.01 1413.48 1147.95C1418.02 1145.89 1422.84 1144.79 1427.96 1144.66C1433.1 1144.46 1438.29 1145.31 1443.52 1147.21C1448.75 1149.12 1453.27 1151.8 1457.08 1155.26C1460.89 1158.71 1463.87 1162.69 1466.02 1167.18C1468.19 1171.61 1469.39 1176.37 1469.61 1181.44C1469.9 1186.54 1469.09 1191.71 1467.18 1196.94C1465.3 1202.11 1462.6 1206.59 1459.08 1210.38C1455.58 1214.1 1451.57 1216.99 1447.03 1219.06C1442.5 1221.12 1437.66 1222.25 1432.52 1222.45C1427.44 1222.67 1422.29 1221.83 1417.06 1219.92ZM1421.32 1208.2C1424.79 1209.46 1428.19 1210.02 1431.53 1209.88C1434.89 1209.67 1438.04 1208.86 1440.98 1207.43C1443.99 1206.03 1446.62 1204.02 1448.85 1201.41C1451.15 1198.82 1452.94 1195.76 1454.23 1192.23C1455.51 1188.7 1456.1 1185.23 1455.98 1181.84C1455.94 1178.4 1455.22 1175.17 1453.82 1172.16C1452.5 1169.11 1450.61 1166.46 1448.15 1164.21C1445.69 1161.96 1442.72 1160.2 1439.25 1158.94C1435.85 1157.7 1432.48 1157.15 1429.14 1157.29C1425.81 1157.44 1422.63 1158.24 1419.59 1159.71C1416.65 1161.13 1414.02 1163.14 1411.73 1165.73C1409.45 1168.26 1407.67 1171.28 1406.38 1174.81C1405.1 1178.34 1404.51 1181.84 1404.6 1185.3C1404.7 1188.76 1405.42 1191.99 1406.76 1194.97C1408.16 1197.98 1410.08 1200.65 1412.52 1202.96C1414.99 1205.21 1417.92 1206.96 1421.32 1208.2Z" fill="white"/>
<path d="M1498.23 1257.69C1493.68 1254.85 1489.98 1251.39 1487.15 1247.32C1484.31 1243.26 1482.36 1238.84 1481.31 1234.07C1480.26 1229.3 1480.15 1224.4 1480.99 1219.39C1481.89 1214.41 1483.81 1209.56 1486.76 1204.84C1489.71 1200.12 1493.2 1196.25 1497.22 1193.23C1501.34 1190.18 1505.72 1188.1 1510.38 1186.97C1515.13 1185.83 1519.94 1185.67 1524.8 1186.49C1529.7 1187.26 1534.43 1189.07 1538.98 1191.91C1543.53 1194.75 1547.12 1198.06 1549.74 1201.84C1552.42 1205.65 1554.21 1209.62 1555.12 1213.74C1556.06 1217.81 1556.12 1221.69 1555.32 1225.38L1541.9 1223.87C1542.77 1219.83 1542.42 1215.89 1540.86 1212.07C1539.29 1208.24 1536.46 1205.05 1532.37 1202.49C1528.38 1200 1524.27 1198.74 1520.03 1198.69C1515.84 1198.69 1511.86 1199.8 1508.09 1202.03C1504.38 1204.3 1501.14 1207.66 1498.36 1212.09C1495.59 1216.53 1494.01 1220.96 1493.62 1225.38C1493.32 1229.78 1494.12 1233.88 1496.02 1237.68C1497.92 1241.48 1500.86 1244.62 1504.84 1247.11C1508.08 1249.13 1511.46 1250.37 1514.97 1250.83C1518.52 1251.23 1521.85 1250.78 1524.96 1249.47C1528.1 1248.12 1530.68 1245.82 1532.71 1242.57L1535.75 1237.71L1538.16 1245.62L1514.61 1230.91L1520.74 1221.09L1550.61 1239.76L1546.61 1246.16C1543.55 1251.05 1540.03 1254.86 1536.03 1257.58C1532.03 1260.3 1527.81 1262.06 1523.37 1262.84C1519.02 1263.6 1514.67 1263.53 1510.33 1262.64C1506.02 1261.68 1501.98 1260.04 1498.23 1257.69Z" fill="white"/>
<path d="M1294.84 1702.47C1292.69 1685.91 1298.47 1674.48 1325.87 1652.81" stroke="white" stroke-width="7.36249"/>
<path d="M1281.04 1656.62C1272.47 1625.88 1290.48 1606.86 1347.98 1570.93" stroke="white" stroke-width="3.06771"/>
<path d="M1261.18 1581.69C1248.46 1540.56 1277.17 1513.82 1377.67 1461.06" stroke="white" stroke-width="3.06771"/>
<path d="M1247.36 1533.31C1305.58 1570.19 1346.63 1592.05 1332.68 1628.06" stroke="white" stroke-width="3.06771"/>
<path d="M1225.47 1444.11C1300.32 1485.72 1356.8 1518.94 1351.68 1553.24" stroke="white" stroke-width="3.06771"/>
<path d="M1276.81 1639.64C1300.14 1664.34 1321.78 1673.56 1316.16 1691.17" stroke="white" stroke-width="7.36249"/>
<path d="M1304.11 1738.85L1381.29 1443.75" stroke="white" stroke-width="4.90833" stroke-linecap="round" stroke-linejoin="round"/>
<path d="M1303.81 1738.85L1224.66 1443.73" stroke="white" stroke-width="4.90833" stroke-linecap="round" stroke-linejoin="round"/>
<path d="M1380.62 1387.8L1375.26 1388.68C1357.79 1391.56 1344.7 1373.02 1353.25 1357.52C1356.65 1351.37 1362.87 1347.23 1369.88 1346.82C1372.19 1346.69 1374.45 1346.59 1376.7 1346.54C1394.51 1346.07 1408.23 1361.44 1408.23 1379.25V1388.55C1408.23 1406.77 1397.31 1424.57 1379.31 1427.39C1372.43 1428.47 1365.68 1428.61 1357.9 1427.85C1344.63 1426.56 1338 1425.91 1329.81 1421.34C1323.88 1418.02 1315.92 1410.07 1312.59 1404.14C1308.01 1395.96 1307.29 1388.57 1305.83 1373.79C1304.41 1359.32 1304.89 1347.52 1307.21 1331.42C1308.69 1321.21 1309.43 1316.1 1313.81 1308.57C1316.53 1303.9 1325.15 1295.24 1329.82 1292.5C1337.33 1288.09 1340.31 1287.65 1346.27 1286.76C1361.88 1284.45 1377.13 1285.32 1388.8 1288.17C1393.4 1289.29 1397.06 1292.59 1399.26 1296.78C1404.2 1306.18 1400.76 1318.47 1390.76 1322.04C1381.78 1325.24 1375.91 1324.29 1364.15 1318.92" stroke="white" stroke-width="12.2708" stroke-linecap="round" stroke-linejoin="round"/>
<path d="M1226.5 1387.8L1231.86 1388.68C1249.33 1391.56 1262.42 1373.02 1253.87 1357.52C1250.48 1351.37 1244.26 1347.23 1237.24 1346.82C1234.93 1346.69 1232.68 1346.59 1230.42 1346.54C1212.62 1346.07 1198.89 1361.44 1198.89 1379.25V1388.55C1198.89 1406.77 1209.81 1424.57 1227.82 1427.39C1234.7 1428.47 1241.45 1428.61 1249.23 1427.85C1262.49 1426.56 1269.13 1425.91 1277.31 1421.34C1283.25 1418.02 1291.21 1410.07 1294.53 1404.14C1299.11 1395.96 1299.84 1388.57 1301.29 1373.79C1302.71 1359.32 1302.24 1347.52 1299.91 1331.42C1298.44 1321.21 1297.7 1316.1 1293.32 1308.57C1290.59 1303.9 1281.97 1295.24 1277.3 1292.5C1269.8 1288.09 1266.82 1287.65 1260.85 1286.76C1245.24 1284.45 1230 1285.32 1218.32 1288.17C1213.72 1289.29 1210.07 1292.59 1207.87 1296.78C1202.93 1306.18 1206.37 1318.47 1216.37 1322.04C1225.35 1325.24 1231.21 1324.29 1242.98 1318.92" stroke="white" stroke-width="12.2708" stroke-linecap="round" stroke-linejoin="round"/>
<path d="M1224.35 1442.81C1285.7 1457.3 1319.96 1457.47 1380.81 1442.81M1224.35 1442.81C1285.7 1457.3 1319.96 1457.47 1380.81 1442.81" stroke="white" stroke-width="3.06771" stroke-linecap="round"/>
<path d="M1281.04 1656.62C1272.47 1625.88 1290.48 1606.86 1347.98 1570.93" stroke="white" stroke-width="7.36249"/>
<path d="M1261.18 1581.69C1248.46 1540.56 1277.17 1513.82 1377.67 1461.06" stroke="white" stroke-width="7.36249"/>
<path d="M1247.36 1533.31C1305.58 1570.19 1346.63 1592.05 1332.68 1628.06" stroke="white" stroke-width="7.36249"/>
<path d="M1225.47 1444.11C1300.32 1485.72 1356.8 1518.94 1351.68 1553.24" stroke="white" stroke-width="7.36249"/>
<path d="M1304.11 1738.85L1381.29 1443.75" stroke="white" stroke-width="12.2708" stroke-linecap="round" stroke-linejoin="round"/>
<path d="M1303.81 1738.85L1224.66 1443.73" stroke="white" stroke-width="12.2708" stroke-linecap="round" stroke-linejoin="round"/>
<path d="M1345.37 1280.7C1361.71 1278.27 1377.76 1279.16 1390.26 1282.21C1396.89 1283.82 1401.84 1288.5 1404.69 1293.93C1410.98 1305.9 1407.07 1322.73 1392.82 1327.81C1387.67 1329.65 1382.98 1330.44 1377.74 1329.78C1372.71 1329.15 1367.61 1327.25 1361.6 1324.5C1358.52 1323.1 1357.16 1319.46 1358.57 1316.37C1359.98 1313.29 1363.61 1311.93 1366.7 1313.34C1372.45 1315.97 1376.16 1317.22 1379.26 1317.61C1382.14 1317.97 1384.87 1317.63 1388.7 1316.26C1394.45 1314.2 1397.41 1306.46 1393.83 1299.64C1392.28 1296.69 1389.92 1294.75 1387.35 1294.13C1376.5 1291.48 1362.05 1290.63 1347.17 1292.83C1344.11 1293.29 1342.37 1293.56 1340.49 1294.16C1338.65 1294.74 1336.46 1295.72 1332.93 1297.79C1331.29 1298.75 1328.42 1301.15 1325.43 1304.14C1322.45 1307.14 1320.07 1310.02 1319.11 1311.66C1315.39 1318.05 1314.76 1322.08 1313.29 1332.3C1311.02 1348 1310.58 1359.31 1311.94 1373.19C1313.42 1388.26 1314.11 1394.28 1317.95 1401.14C1319.24 1403.44 1321.64 1406.46 1324.56 1409.38C1327.48 1412.3 1330.51 1414.7 1332.81 1415.98C1339.7 1419.84 1345.04 1420.44 1358.49 1421.74C1365.82 1422.46 1372.05 1422.32 1378.36 1421.33C1392.43 1419.13 1402.1 1404.82 1402.1 1388.55V1379.25C1402.1 1364.37 1390.72 1352.31 1376.86 1352.67C1374.68 1352.73 1372.49 1352.82 1370.23 1352.95C1365.45 1353.22 1361.07 1356.06 1358.63 1360.49C1352.55 1371.5 1361.85 1384.67 1374.27 1382.63L1379.63 1381.75C1382.97 1381.2 1386.13 1383.46 1386.68 1386.8C1387.23 1390.15 1384.96 1393.3 1381.62 1393.85L1376.26 1394.74C1353.74 1398.44 1336.86 1374.55 1347.88 1354.56C1352.23 1346.68 1360.28 1341.23 1369.53 1340.7C1371.9 1340.56 1374.22 1340.46 1376.54 1340.4C1398.3 1339.83 1414.37 1358.51 1414.37 1379.25V1388.55C1414.37 1408.72 1402.2 1430.02 1380.25 1433.45C1372.81 1434.62 1365.53 1434.76 1357.3 1433.96C1344.22 1432.69 1336.3 1431.99 1326.82 1426.69C1323.19 1424.66 1319.26 1421.43 1315.89 1418.06C1312.51 1414.69 1309.28 1410.77 1307.24 1407.14C1301.92 1397.63 1301.15 1388.88 1299.73 1374.39C1298.25 1359.34 1298.76 1347.03 1301.14 1330.54C1302.62 1320.33 1303.46 1314.14 1308.51 1305.49C1310.28 1302.45 1313.57 1298.67 1316.74 1295.48C1319.91 1292.3 1323.68 1288.99 1326.71 1287.21C1330.69 1284.88 1333.74 1283.42 1336.77 1282.46C1339.74 1281.52 1342.47 1281.13 1345.37 1280.7Z" fill="white"/>
<path d="M1261.75 1280.7C1245.42 1278.27 1229.37 1279.16 1216.87 1282.21C1210.24 1283.82 1205.29 1288.5 1202.44 1293.93C1196.15 1305.9 1200.06 1322.73 1214.3 1327.81C1219.45 1329.65 1224.15 1330.44 1229.39 1329.78C1234.41 1329.15 1239.52 1327.25 1245.52 1324.5C1248.61 1323.1 1249.96 1319.46 1248.56 1316.37C1247.15 1313.29 1243.51 1311.93 1240.43 1313.34C1234.67 1315.97 1230.96 1317.22 1227.86 1317.61C1224.99 1317.97 1222.26 1317.63 1218.43 1316.26C1212.68 1314.2 1209.71 1306.46 1213.3 1299.64C1214.85 1296.69 1217.21 1294.75 1219.77 1294.13C1230.63 1291.48 1245.07 1290.63 1259.95 1292.83C1263.01 1293.29 1264.76 1293.56 1266.64 1294.16C1268.48 1294.74 1270.66 1295.72 1274.2 1297.79C1275.83 1298.75 1278.71 1301.15 1281.69 1304.14C1284.68 1307.14 1287.06 1310.02 1288.01 1311.66C1291.74 1318.05 1292.36 1322.08 1293.84 1332.3C1296.11 1348 1296.55 1359.31 1295.18 1373.19C1293.7 1388.26 1293.02 1394.28 1289.18 1401.14C1287.89 1403.44 1285.48 1406.46 1282.56 1409.38C1279.64 1412.3 1276.62 1414.7 1274.32 1415.98C1267.43 1419.84 1262.09 1420.44 1248.63 1421.74C1241.3 1422.46 1235.07 1422.32 1228.77 1421.33C1214.7 1419.13 1205.03 1404.82 1205.03 1388.55V1379.25C1205.03 1364.37 1216.4 1352.31 1230.26 1352.67C1232.45 1352.73 1234.64 1352.82 1236.89 1352.95C1241.67 1353.22 1246.06 1356.06 1248.5 1360.49C1254.57 1371.5 1245.27 1384.67 1232.86 1382.63L1227.5 1381.75C1224.15 1381.2 1221 1383.46 1220.45 1386.8C1219.9 1390.15 1222.16 1393.3 1225.5 1393.85L1230.87 1394.74C1253.39 1398.44 1270.27 1374.55 1259.24 1354.56C1254.89 1346.68 1246.85 1341.23 1237.6 1340.7C1235.22 1340.56 1232.91 1340.46 1230.58 1340.4C1208.83 1339.83 1192.76 1358.51 1192.76 1379.25V1388.55C1192.76 1408.72 1204.93 1430.02 1226.87 1433.45C1234.32 1434.62 1241.59 1434.76 1249.82 1433.96C1262.9 1432.69 1270.83 1431.99 1280.31 1426.69C1283.94 1424.66 1287.86 1421.43 1291.24 1418.06C1294.61 1414.69 1297.85 1410.77 1299.88 1407.14C1305.21 1397.63 1305.97 1388.88 1307.4 1374.39C1308.87 1359.34 1308.36 1347.03 1305.98 1330.54C1304.51 1320.33 1303.66 1314.14 1298.62 1305.49C1296.85 1302.45 1293.56 1298.67 1290.38 1295.48C1287.21 1292.3 1283.44 1288.99 1280.41 1287.21C1276.44 1284.88 1273.38 1283.42 1270.36 1282.46C1267.38 1281.52 1264.66 1281.13 1261.75 1280.7Z" fill="white"/>
<path d="M1224.66 1441.28C1286.01 1455.76 1320.26 1455.94 1381.11 1441.28" stroke="white" stroke-width="7.36249" stroke-linecap="round"/>
</svg>
