<svg width="1024" height="1024" viewBox="0 0 1024 1024" fill="none" xmlns="http://www.w3.org/2000/svg">
<rect width="1024" height="1024" fill="#1E1E1E"/>
<circle cx="512" cy="512" r="512" fill="#1B5E52"/>
<circle cx="512" cy="512" r="488.477" stroke="white" stroke-width="1.53385"/>
<circle cx="512.001" cy="512.001" r="466.336" stroke="white" stroke-opacity="0.4" stroke-width="0.306771"/>
<circle cx="512" cy="477.867" r="273.067" fill="#0D9488" fill-opacity="0.2"/>
<path d="M252.694 801.693C250.389 799.617 248.641 797.304 247.45 794.752C246.287 792.172 245.66 789.494 245.57 786.718C245.535 783.94 246.044 781.174 247.095 778.422C248.146 775.67 249.776 773.069 251.983 770.618C254.19 768.166 256.607 766.274 259.234 764.941C261.861 763.608 264.558 762.813 267.325 762.557C270.121 762.327 272.85 762.67 275.512 763.587C278.2 764.475 280.696 765.957 283.001 768.033C285.219 770.03 286.849 772.21 287.89 774.575C288.961 776.965 289.529 779.326 289.596 781.658C289.718 783.988 289.424 786.074 288.715 787.919L284.184 786.613C285.153 783.893 285.304 781.202 284.636 778.54C283.969 775.878 282.438 773.47 280.046 771.316C277.653 769.161 275.01 767.812 272.118 767.268C269.226 766.725 266.335 767.002 263.445 768.098C260.581 769.166 257.928 771.057 255.484 773.77C253.067 776.455 251.464 779.292 250.675 782.28C249.887 785.269 249.914 788.173 250.757 790.992C251.626 793.783 253.257 796.255 255.65 798.41C257.78 800.328 260.112 801.582 262.645 802.172C265.207 802.789 267.707 802.741 270.144 802.029C272.608 801.289 274.786 799.868 276.677 797.767L278.293 795.972L278.45 798.967L265.581 787.38L268.34 784.316L283.135 797.637L280.691 800.351C278.773 802.481 276.62 804.109 274.233 805.235C271.871 806.332 269.428 806.933 266.904 807.037C264.379 807.142 261.884 806.744 259.417 805.845C257.007 804.942 254.766 803.558 252.694 801.693Z" fill="#9FE1CB"/>
<path d="M282.755 822.066L308.547 786.566L331.419 803.184L328.823 806.758L309.762 792.91L300.796 805.252L318.903 818.407L316.307 821.981L298.199 808.825L289.163 821.262L308.224 835.11L305.627 838.684L282.755 822.066Z" fill="#9FE1CB"/>
<path d="M327.073 851.488L349.014 813.486L353.094 815.842L333.363 850.018L350.196 859.737L347.987 863.562L327.073 851.488Z" fill="#9FE1CB"/>
<path d="M362.943 868.847L394.235 834.164L398.932 836.061L397.348 882.748L392.761 880.894L393.281 869.543L375.096 862.196L367.53 870.701L362.943 868.847ZM378.17 858.674L393.407 864.83L394.604 838.124L395.915 838.654L378.17 858.674Z" fill="#9FE1CB"/>
<path d="M417.863 889.554L428.741 851.62L417.077 848.276L418.295 844.029L446.038 851.984L444.82 856.231L433.27 852.919L422.393 890.853L417.863 889.554Z" fill="#9FE1CB"/>
<path d="M471.097 902.513C468.043 902.287 465.225 901.527 462.643 900.233C460.104 898.903 457.91 897.165 456.061 895.02C454.215 892.835 452.825 890.331 451.893 887.505C450.964 884.641 450.621 881.564 450.865 878.274C451.109 874.985 451.9 872.012 453.239 869.355C454.581 866.659 456.324 864.386 458.469 862.537C460.617 860.649 463.044 859.254 465.749 858.352C468.493 857.453 471.392 857.117 474.447 857.343C477.501 857.57 480.298 858.348 482.837 859.678C485.419 860.972 487.633 862.711 489.479 864.896C491.328 867.041 492.719 869.526 493.651 872.351C494.583 875.177 494.928 878.234 494.684 881.524C494.44 884.813 493.647 887.806 492.305 890.502C490.966 893.159 489.223 895.431 487.075 897.319C484.93 899.168 482.483 900.562 479.736 901.5C477.031 902.402 474.152 902.74 471.097 902.513ZM471.424 898.108C473.969 898.297 476.315 897.998 478.46 897.212C480.644 896.429 482.562 895.252 484.214 893.682C485.866 892.111 487.185 890.26 488.17 888.128C489.194 885.999 489.799 883.681 489.985 881.175C490.168 878.708 489.91 876.346 489.211 874.089C488.551 871.835 487.52 869.81 486.118 868.013C484.715 866.216 482.992 864.769 480.947 863.672C478.941 862.579 476.665 861.937 474.12 861.749C471.575 861.56 469.21 861.857 467.026 862.64C464.88 863.426 462.982 864.604 461.33 866.175C459.678 867.746 458.34 869.595 457.316 871.724C456.331 873.856 455.747 876.156 455.564 878.623C455.378 881.129 455.615 883.509 456.275 885.763C456.973 888.02 458.024 890.047 459.426 891.844C460.829 893.641 462.552 895.088 464.597 896.184C466.642 897.281 468.918 897.922 471.424 898.108Z" fill="#9FE1CB"/>
<path d="M533.696 903.097L529.109 859.457L533.796 858.964L537.921 898.211L557.251 896.18L557.713 900.573L533.696 903.097Z" fill="#9FE1CB"/>
<path d="M594.765 891.318C591.821 892.162 588.914 892.424 586.045 892.103C583.202 891.733 580.542 890.862 578.065 889.489C575.577 888.078 573.407 886.209 571.555 883.88C569.692 881.514 568.306 878.746 567.396 875.575C566.487 872.405 566.201 869.341 566.538 866.385C566.864 863.392 567.714 860.656 569.087 858.179C570.449 855.664 572.243 853.516 574.469 851.734C576.733 849.941 579.337 848.623 582.281 847.778C585.225 846.934 588.118 846.697 590.961 847.066C593.831 847.387 596.51 848.253 598.998 849.664C601.475 851.037 603.639 852.887 605.491 855.216C607.344 857.544 608.724 860.293 609.634 863.464C610.543 866.635 610.834 869.717 610.508 872.711C610.171 875.667 609.321 878.402 607.959 880.917C606.586 883.394 604.773 885.548 602.521 887.378C600.295 889.16 597.71 890.474 594.765 891.318ZM593.548 887.071C596.001 886.368 598.098 885.276 599.839 883.797C601.618 882.306 603.01 880.539 604.017 878.494C605.024 876.448 605.62 874.255 605.807 871.914C606.031 869.562 605.797 867.179 605.104 864.763C604.422 862.385 603.363 860.258 601.927 858.382C600.528 856.496 598.86 854.952 596.922 853.751C594.985 852.55 592.867 851.789 590.569 851.468C588.309 851.136 585.952 851.321 583.498 852.025C581.045 852.728 578.929 853.825 577.15 855.315C575.41 856.795 574.036 858.557 573.029 860.603C572.023 862.648 571.407 864.846 571.183 867.198C570.996 869.539 571.244 871.899 571.926 874.277C572.619 876.692 573.664 878.843 575.063 880.73C576.5 882.605 578.187 884.144 580.124 885.345C582.061 886.546 584.179 887.307 586.477 887.628C588.775 887.95 591.132 887.764 593.548 887.071Z" fill="#9FE1CB"/>
<path d="M652.19 876.524C649.314 877.686 646.468 878.243 643.653 878.194C640.824 878.109 638.142 877.499 635.608 876.363C633.096 875.176 630.833 873.507 628.82 871.355C626.808 869.204 625.183 866.599 623.948 863.541C622.712 860.483 622.071 857.481 622.024 854.535C621.978 851.589 622.446 848.817 623.428 846.218C624.448 843.604 625.953 841.302 627.944 839.311C629.92 837.285 632.346 835.69 635.222 834.528C637.989 833.41 640.664 832.902 643.245 833.002C645.863 833.088 648.235 833.612 650.36 834.574C652.507 835.486 654.254 836.664 655.6 838.111L652.441 841.611C650.421 839.547 648.069 838.232 645.383 837.665C642.698 837.098 639.863 837.418 636.877 838.624C633.892 839.83 631.521 841.614 629.764 843.975C628.008 846.337 626.989 849.056 626.708 852.134C626.413 855.176 626.949 858.39 628.317 861.776C629.67 865.125 631.517 867.809 633.857 869.828C636.198 871.847 638.82 873.096 641.723 873.575C644.612 874.017 647.55 873.635 650.535 872.428C653.193 871.355 655.342 869.809 656.983 867.79C658.66 865.758 659.713 863.49 660.142 860.987C660.556 858.448 660.234 855.868 659.175 853.247L658.27 851.008L661.03 852.18L644.975 858.666L643.43 854.844L661.889 847.386L663.257 850.772C664.331 853.43 664.85 856.078 664.816 858.718C664.766 861.321 664.235 863.78 663.222 866.095C662.21 868.41 660.758 870.479 658.869 872.301C657.001 874.072 654.775 875.48 652.19 876.524Z" fill="#9FE1CB"/>
<path d="M703.833 853.743C701.146 855.294 698.406 856.241 695.612 856.585C692.798 856.894 690.058 856.663 687.39 855.891C684.737 855.065 682.264 853.727 679.971 851.876C677.679 850.026 675.708 847.673 674.059 844.816C672.41 841.96 671.357 839.076 670.901 836.166C670.445 833.255 670.522 830.445 671.134 827.734C671.779 825.003 672.949 822.514 674.644 820.266C676.319 817.984 678.499 816.068 681.186 814.517C683.77 813.025 686.348 812.149 688.918 811.889C691.523 811.609 693.944 811.798 696.183 812.456C698.436 813.059 700.329 813.984 701.864 815.228L699.222 819.134C696.935 817.371 694.422 816.396 691.684 816.209C688.946 816.021 686.183 816.733 683.395 818.343C680.606 819.952 678.507 822.049 677.096 824.632C675.685 827.214 675.055 830.049 675.205 833.137C675.336 836.19 676.314 839.298 678.14 842.46C679.946 845.589 682.148 847.99 684.747 849.663C687.345 851.337 690.116 852.209 693.058 852.278C695.98 852.314 698.836 851.527 701.624 849.917C704.107 848.484 706.02 846.654 707.364 844.427C708.742 842.18 709.469 839.788 709.546 837.25C709.602 834.678 708.924 832.168 707.51 829.72L706.303 827.628L709.199 828.404L694.203 837.063L692.141 833.492L709.382 823.538L711.208 826.701C712.641 829.183 713.525 831.734 713.858 834.352C714.171 836.937 713.988 839.446 713.307 841.88C712.626 844.313 711.477 846.564 709.859 848.631C708.256 850.645 706.247 852.349 703.833 853.743Z" fill="#9FE1CB"/>
<path d="M734.788 834.391L708.996 798.891L731.869 782.273L734.465 785.847L715.405 799.695L724.371 812.036L742.479 798.881L745.075 802.454L726.968 815.61L736.004 828.047L755.064 814.199L757.661 817.773L734.788 834.391Z" fill="#9FE1CB"/>
<path d="M771.954 805.824L742.592 773.215L753.797 763.125C755.927 761.207 758.176 759.949 760.543 759.35C762.884 758.722 765.175 758.773 767.416 759.502C769.661 760.176 771.677 761.505 773.463 763.489C775.539 765.794 776.7 768.316 776.945 771.053C777.22 773.765 776.624 776.389 775.157 778.925L794.715 785.33L790.6 789.035L769.983 782.157L773.568 781.386L764.026 789.978L775.455 802.671L771.954 805.824ZM761.07 786.695L768.949 779.601C770.349 778.34 771.339 776.974 771.916 775.502C772.467 774.002 772.588 772.493 772.279 770.975C771.943 769.429 771.157 767.969 769.922 766.598C768.687 765.226 767.331 764.307 765.854 763.841C764.377 763.374 762.877 763.351 761.354 763.772C759.804 764.163 758.329 764.989 756.928 766.251L749.049 773.345L761.07 786.695Z" fill="#9FE1CB"/>
<path d="M339.576 223.438C335.235 226.593 330.647 228.724 325.813 229.831C320.979 230.938 316.154 231.086 311.335 230.275C306.517 229.464 301.942 227.731 297.608 225.075C293.328 222.381 289.552 218.781 286.279 214.277C283.007 209.772 280.723 205.088 279.428 200.225C278.148 195.268 277.86 190.42 278.562 185.681C279.28 180.848 280.932 176.331 283.518 172.13C286.065 167.875 289.509 164.171 293.851 161.016C298.192 157.862 302.605 155.775 307.088 154.757C311.626 153.698 315.976 153.523 320.138 154.23C324.261 154.883 327.883 156.273 331.004 158.4L324.584 170.278C321.157 167.959 317.378 166.808 313.245 166.825C309.112 166.843 305.092 168.271 301.184 171.11C297.386 173.87 294.671 177.21 293.042 181.13C291.467 185.011 291.009 189.117 291.668 193.447C292.381 197.738 294.275 202 297.35 206.233C300.426 210.466 303.941 213.592 307.895 215.611C311.864 217.537 315.965 218.33 320.196 217.992C324.428 217.653 328.443 216.104 332.242 213.344C335.336 211.097 337.751 208.43 339.489 205.343C341.187 202.203 342.014 198.948 341.971 195.579C341.889 192.157 340.724 188.899 338.477 185.805L335.106 181.165L343.347 181.894L320.879 198.218L314.078 188.856L342.569 168.156L347.005 174.261C350.396 178.929 352.605 183.625 353.634 188.35C354.662 193.075 354.707 197.645 353.768 202.058C352.844 206.378 351.152 210.384 348.695 214.077C346.197 217.716 343.158 220.836 339.576 223.438Z" fill="white"/>
<path d="M382.996 189.276L357.357 118.834L404.161 101.799L408.291 113.145L374.346 125.5L380.919 143.559L412.973 131.893L417.102 143.239L385.049 154.906L391.726 173.249L425.67 160.894L429.8 172.241L382.996 189.276Z" fill="white"/>
<path d="M451.262 164.494L443.43 89.9414L457.039 88.5115L463.61 151.055L495.533 147.701L496.794 159.71L451.262 164.494Z" fill="white"/>
<path d="M529.748 159.706L537.584 85.1543L551.193 86.5847L544.62 149.128L576.542 152.483L575.28 164.492L529.748 159.706Z" fill="white"/>
<path d="M625.557 185.424C620.388 183.543 615.898 180.874 612.088 177.417C608.278 173.96 605.299 169.985 603.151 165.491C601.003 160.997 599.787 156.2 599.502 151.099C599.303 145.958 600.144 140.803 602.025 135.634C603.929 130.402 606.599 125.913 610.033 122.166C613.467 118.419 617.451 115.514 621.984 113.452C626.518 111.391 631.344 110.292 636.462 110.156C641.603 109.956 646.789 110.809 652.021 112.713C657.253 114.618 661.774 117.298 665.584 120.755C669.394 124.212 672.373 128.188 674.521 132.681C676.692 137.112 677.888 141.866 678.11 146.944C678.395 152.045 677.586 157.211 675.682 162.443C673.8 167.612 671.1 172.09 667.58 175.877C664.083 179.601 660.067 182.494 655.533 184.556C650.999 186.618 646.162 187.749 641.021 187.948C635.943 188.17 630.788 187.329 625.557 185.424ZM629.824 173.7C633.291 174.962 636.692 175.521 640.028 175.379C643.386 175.174 646.538 174.358 649.485 172.932C652.494 171.529 655.116 169.521 657.352 166.908C659.651 164.318 661.443 161.258 662.728 157.728C664.013 154.198 664.595 150.734 664.476 147.336C664.443 143.897 663.724 140.673 662.321 137.664C661.004 134.614 659.113 131.963 656.65 129.71C654.186 127.457 651.221 125.7 647.754 124.438C644.35 123.199 640.98 122.651 637.645 122.793C634.309 122.935 631.125 123.739 628.093 125.206C625.147 126.632 622.524 128.64 620.225 131.23C617.949 133.756 616.169 136.785 614.884 140.315C613.599 143.845 613.005 147.34 613.102 150.802C613.198 154.264 613.916 157.488 615.257 160.474C616.66 163.483 618.582 166.146 621.023 168.462C623.486 170.715 626.42 172.461 629.824 173.7Z" fill="white"/>
<path d="M706.73 223.189C702.179 220.345 698.485 216.89 695.647 212.823C692.81 208.756 690.865 204.337 689.812 199.566C688.759 194.795 688.652 189.903 689.49 184.89C690.386 179.913 692.309 175.063 695.259 170.341C698.21 165.62 701.697 161.748 705.721 158.725C709.838 155.682 714.225 153.598 718.882 152.474C723.632 151.329 728.439 151.168 733.302 151.993C738.201 152.76 742.927 154.566 747.478 157.41C752.029 160.253 755.616 163.563 758.24 167.338C760.921 171.149 762.714 175.117 763.617 179.241C764.556 183.308 764.624 187.187 763.821 190.877L750.403 189.375C751.27 185.329 750.921 181.393 749.357 177.568C747.792 173.742 744.962 170.55 740.866 167.991C736.884 165.502 732.77 164.237 728.525 164.195C724.337 164.188 720.359 165.301 716.59 167.534C712.879 169.803 709.637 173.156 706.864 177.593C704.092 182.03 702.51 186.46 702.119 190.883C701.821 195.284 702.621 199.384 704.52 203.18C706.419 206.977 709.359 210.12 713.342 212.608C716.584 214.634 719.962 215.875 723.474 216.33C727.023 216.727 730.35 216.276 733.458 214.974C736.6 213.616 739.185 211.315 741.211 208.073L744.25 203.209L746.661 211.123L723.11 196.406L729.242 186.593L759.108 205.255L755.109 211.655C752.052 216.547 748.525 220.355 744.529 223.079C740.533 225.803 736.314 227.556 731.87 228.338C727.518 229.1 723.17 229.033 718.825 228.137C714.516 227.185 710.484 225.535 706.73 223.189Z" fill="white"/>
<path d="M503.336 667.969C501.19 651.413 506.967 639.978 534.367 618.31" stroke="white" stroke-width="7.36249"/>
<path d="M489.535 622.121C480.972 591.378 498.978 572.355 556.482 536.433" stroke="white" stroke-width="3.06771"/>
<path d="M469.676 547.194C456.963 506.064 485.669 479.321 586.172 426.558" stroke="white" stroke-width="3.06771"/>
<path d="M455.86 498.809C514.077 535.691 555.127 557.554 541.178 593.564" stroke="white" stroke-width="3.06771"/>
<path d="M433.968 409.613C508.824 451.217 565.298 484.438 560.184 518.741" stroke="white" stroke-width="3.06771"/>
<path d="M485.312 605.143C508.645 629.839 530.277 639.061 524.657 656.67" stroke="white" stroke-width="7.36249"/>
<path d="M512.613 704.345L589.795 409.245" stroke="white" stroke-width="4.90833" stroke-linecap="round" stroke-linejoin="round"/>
<path d="M512.307 704.346L433.16 409.232" stroke="white" stroke-width="4.90833" stroke-linecap="round" stroke-linejoin="round"/>
<path d="M589.124 353.299L583.761 354.181C566.294 357.056 553.204 338.522 561.755 323.021C565.148 316.87 571.366 312.728 578.38 312.324C580.694 312.191 582.948 312.095 585.202 312.035C603.009 311.568 616.733 326.94 616.733 344.752V354.045C616.733 372.27 605.811 390.073 587.806 392.89C580.929 393.966 574.175 394.107 566.395 393.35C553.13 392.06 546.498 391.414 538.313 386.838C532.379 383.521 524.418 375.567 521.095 369.636C516.512 361.455 515.786 354.066 514.334 339.289C512.913 324.823 513.389 313.017 515.713 296.92C517.188 286.705 517.926 281.598 522.309 274.073C525.034 269.396 533.653 260.744 538.32 258.002C545.828 253.59 548.81 253.148 554.773 252.264C570.382 249.951 585.627 250.818 597.305 253.665C601.902 254.786 605.557 258.095 607.758 262.284C612.695 271.682 609.256 283.966 599.258 287.535C590.277 290.742 584.414 289.791 572.649 284.421" stroke="white" stroke-width="12.2708" stroke-linecap="round" stroke-linejoin="round"/>
<path d="M435.001 353.299L440.364 354.181C457.831 357.056 470.921 338.522 462.37 323.021C458.977 316.87 452.759 312.728 445.745 312.324C443.431 312.191 441.177 312.095 438.923 312.035C421.116 311.568 407.392 326.94 407.392 344.752V354.045C407.392 372.27 418.314 390.073 436.319 392.89C443.196 393.966 449.95 394.107 457.73 393.35C470.995 392.06 477.627 391.414 485.812 386.838C491.746 383.521 499.707 375.567 503.03 369.636C507.613 361.455 508.339 354.066 509.791 339.289C511.212 324.823 510.736 313.017 508.412 296.92C506.937 286.705 506.199 281.598 501.816 274.073C499.091 269.396 490.472 260.744 485.805 258.002C478.297 253.59 475.315 253.148 469.352 252.264C453.743 249.951 438.498 250.818 426.82 253.665C422.223 254.786 418.568 258.095 416.367 262.284C411.43 271.682 414.869 283.966 424.867 287.535C433.848 290.742 439.711 289.791 451.476 284.421" stroke="white" stroke-width="12.2708" stroke-linecap="round" stroke-linejoin="round"/>
<path d="M432.854 408.312C494.199 422.795 528.458 422.971 589.306 408.312M432.854 408.312C494.199 422.795 528.458 422.971 589.306 408.312" stroke="white" stroke-width="3.06771" stroke-linecap="round"/>
<path d="M489.535 622.121C480.972 591.378 498.978 572.355 556.482 536.433" stroke="white" stroke-width="7.36249"/>
<path d="M469.676 547.194C456.963 506.064 485.669 479.321 586.172 426.558" stroke="white" stroke-width="7.36249"/>
<path d="M455.86 498.809C514.077 535.691 555.127 557.554 541.178 593.564" stroke="white" stroke-width="7.36249"/>
<path d="M433.968 409.613C508.824 451.217 565.298 484.438 560.184 518.741" stroke="white" stroke-width="7.36249"/>
<path d="M512.613 704.345L589.795 409.245" stroke="white" stroke-width="12.2708" stroke-linecap="round" stroke-linejoin="round"/>
<path d="M512.307 704.346L433.16 409.232" stroke="white" stroke-width="12.2708" stroke-linecap="round" stroke-linejoin="round"/>
<path d="M553.873 246.196C570.209 243.774 586.257 244.657 598.758 247.705C605.39 249.322 610.338 254.005 613.189 259.431C619.48 271.405 615.566 288.229 601.322 293.314C596.171 295.153 591.476 295.939 586.236 295.283C581.215 294.654 576.11 292.745 570.102 290.003C567.019 288.596 565.661 284.956 567.068 281.874C568.475 278.791 572.115 277.433 575.197 278.84C580.954 281.468 584.663 282.719 587.76 283.107C590.638 283.468 593.365 283.125 597.196 281.758C602.948 279.704 605.911 271.961 602.326 265.138C600.775 262.187 598.415 260.252 595.852 259.627C584.998 256.98 570.555 256.128 555.673 258.334C552.614 258.788 550.867 259.06 548.985 259.658C547.149 260.242 544.962 261.216 541.429 263.292C539.792 264.254 536.918 266.647 533.933 269.643C530.948 272.639 528.567 275.522 527.611 277.162C523.888 283.554 523.262 287.581 521.787 297.798C519.519 313.503 519.077 324.806 520.441 338.69C521.921 353.758 522.606 359.781 526.448 366.637C527.736 368.936 530.141 371.959 533.062 374.878C535.983 377.796 539.008 380.198 541.308 381.484C548.199 385.336 553.539 385.935 566.99 387.244C574.321 387.958 580.553 387.816 586.858 386.829C600.926 384.628 610.598 370.323 610.598 354.046V344.753C610.598 329.871 599.222 317.806 585.364 318.17C583.178 318.227 580.988 318.32 578.733 318.45C573.954 318.725 569.566 321.564 567.127 325.986C561.052 337.001 570.353 350.17 582.766 348.128L588.128 347.246C591.471 346.696 594.628 348.96 595.178 352.303C595.728 355.647 593.464 358.803 590.12 359.353L584.758 360.236C562.235 363.942 545.358 340.045 556.383 320.059C560.731 312.176 568.78 306.732 578.028 306.199C580.401 306.063 582.719 305.964 585.042 305.903C606.798 305.332 622.869 324.009 622.869 344.753V354.046C622.869 374.218 610.696 395.52 588.754 398.953C581.307 400.118 574.03 400.258 565.802 399.458C552.723 398.185 544.798 397.494 535.32 392.195C531.686 390.163 527.763 386.929 524.389 383.558C521.015 380.188 517.778 376.267 515.743 372.635C510.418 363.131 509.652 354.376 508.229 339.889C506.751 324.842 507.261 312.531 509.642 296.044C511.116 285.832 511.965 279.644 517.008 270.986C518.777 267.949 522.068 264.167 525.24 260.983C528.413 257.798 532.182 254.494 535.213 252.713C539.187 250.377 542.245 248.925 545.267 247.964C548.244 247.017 550.969 246.626 553.873 246.196Z" fill="white"/>
<path d="M470.252 246.196C453.916 243.774 437.868 244.657 425.367 247.705C418.735 249.322 413.787 254.005 410.936 259.431C404.645 271.405 408.559 288.229 422.803 293.314C427.954 295.153 432.649 295.939 437.889 295.283C442.91 294.654 448.015 292.745 454.023 290.003C457.106 288.596 458.464 284.956 457.057 281.874C455.65 278.791 452.01 277.433 448.928 278.84C443.171 281.468 439.462 282.719 436.365 283.107C433.487 283.468 430.76 283.125 426.929 281.758C421.177 279.704 418.214 271.961 421.799 265.138C423.35 262.187 425.71 260.252 428.273 259.627C439.127 256.98 453.57 256.128 468.452 258.334C471.511 258.788 473.258 259.06 475.14 259.658C476.976 260.242 479.163 261.216 482.696 263.292C484.333 264.254 487.207 266.647 490.192 269.643C493.177 272.639 495.558 275.522 496.514 277.162C500.237 283.554 500.863 287.581 502.338 297.798C504.606 313.503 505.048 324.806 503.684 338.69C502.204 353.758 501.519 359.781 497.677 366.637C496.389 368.936 493.984 371.959 491.063 374.878C488.142 377.796 485.117 380.198 482.817 381.484C475.926 385.336 470.586 385.935 457.135 387.244C449.804 387.958 443.572 387.816 437.267 386.829C423.199 384.628 413.527 370.323 413.527 354.046V344.753C413.527 329.871 424.903 317.806 438.761 318.17C440.947 318.227 443.137 318.32 445.392 318.45C450.171 318.725 454.559 321.564 456.998 325.986C463.073 337.001 453.772 350.17 441.359 348.128L435.997 347.246C432.654 346.696 429.497 348.96 428.947 352.303C428.397 355.647 430.661 358.803 434.005 359.353L439.367 360.236C461.89 363.942 478.767 340.045 467.742 320.059C463.394 312.176 455.345 306.732 446.097 306.199C443.724 306.063 441.406 305.964 439.083 305.903C417.327 305.332 401.256 324.009 401.256 344.753V354.046C401.256 374.218 413.429 395.52 435.371 398.953C442.818 400.118 450.095 400.258 458.323 399.458C471.402 398.185 479.327 397.494 488.805 392.195C492.439 390.163 496.362 386.929 499.736 383.558C503.11 380.188 506.347 376.267 508.382 372.635C513.707 363.131 514.473 354.376 515.896 339.889C517.374 324.842 516.864 312.531 514.483 296.044C513.009 285.832 512.16 279.644 507.117 270.986C505.348 267.949 502.057 264.167 498.885 260.983C495.712 257.798 491.943 254.494 488.912 252.713C484.938 250.377 481.88 248.925 478.858 247.964C475.881 247.017 473.156 246.626 470.252 246.196Z" fill="white"/>
<path d="M433.16 406.777C494.506 421.26 528.764 421.436 589.613 406.777" stroke="white" stroke-width="7.36249" stroke-linecap="round"/>
</svg>
