<svg width="1024" height="850" viewBox="0 0 1024 850" fill="none" xmlns="http://www.w3.org/2000/svg">
<ellipse cx="512" cy="677.198" rx="485.976" ry="172.552" fill="#0D9488"/>
<path d="M26.0243 194.286C26.0243 182.854 26.0243 177.138 28.3777 173.293C30.4502 169.907 33.6562 167.442 37.4613 166.31C41.782 165.025 47.3535 166.507 58.4966 169.472C401.711 260.793 611.253 260.797 965.685 169.164C976.773 166.298 982.318 164.864 986.614 166.166C990.397 167.312 993.584 169.779 995.64 173.155C997.976 176.989 997.976 182.664 997.976 194.014V673.214C997.976 680.374 997.976 683.954 996.714 686.939C995.606 689.564 993.795 691.867 991.507 693.564C988.904 695.495 985.403 696.345 978.402 698.047C617.525 785.766 406.605 785.557 45.6138 698.038C38.6068 696.34 35.1034 695.49 32.4983 693.56C30.2081 691.863 28.3963 689.559 27.2866 686.934C26.0243 683.947 26.0243 680.365 26.0243 673.201V194.286Z" fill="#0D9488"/>
<ellipse cx="512" cy="182.736" rx="512" ry="182.736" fill="#EFEFE5"/>
<ellipse cx="512" cy="169.158" rx="485.976" ry="144.265" fill="#E8E3C6"/>
</svg>
