<svg width="744" height="1389" viewBox="0 0 744 1389" fill="none" xmlns="http://www.w3.org/2000/svg">
<rect x="379" width="365" height="690" rx="57" fill="#B5B5B5"/>
<rect x="397" y="17" width="330" height="655" rx="57" fill="#D9D9D9"/>
<rect x="403" y="24" width="317" height="642" rx="57" fill="#FEF083"/>
<rect x="379" y="699" width="365" height="690" rx="57" fill="#B5B5B5"/>
<rect x="394" y="716" width="330" height="655" rx="57" fill="#D9D9D9"/>
<rect x="400" y="723" width="317" height="642" rx="57" fill="#F9A8D4"/>
<path d="M481.607 783.763C516.884 822.389 480.708 838.642 506.982 875.516" stroke="#BC606D" stroke-opacity="0.48" stroke-width="12" stroke-linecap="round"/>
<path d="M514.004 1065.14C492.632 968.534 596.376 1080.31 592.331 1010.2" stroke="#BC606D" stroke-opacity="0.48" stroke-width="12" stroke-linecap="round"/>
<path d="M567.695 1280.68C696.525 1322.72 568.335 1164.1 664.856 1178.65" stroke="#BC606D" stroke-opacity="0.48" stroke-width="12" stroke-linecap="round"/>
<path d="M590 786C706.5 768.5 626.139 920.721 671.5 947" stroke="#BC606D" stroke-opacity="0.48" stroke-width="12" stroke-linecap="round"/>
<path d="M447.5 1122.5C426 1171 443.5 1208.5 486.5 1208.5" stroke="#BC606D" stroke-opacity="0.48" stroke-width="12" stroke-linecap="round"/>
<path d="M484.359 92.219C519.636 130.845 483.46 147.098 509.733 183.972" stroke="#FFF8C5" stroke-width="12" stroke-linecap="round"/>
<path d="M516.756 373.6C495.384 276.99 599.128 388.765 595.083 318.653" stroke="#FFF8C5" stroke-width="12" stroke-linecap="round"/>
<path d="M570.447 589.137C699.276 631.175 571.087 472.554 667.607 487.104" stroke="#FFF8C5" stroke-width="12" stroke-linecap="round"/>
<path d="M592.752 94.456C709.252 76.9561 628.891 229.177 674.252 255.456" stroke="#FFF8C5" stroke-width="12" stroke-linecap="round"/>
<path d="M450.252 430.956C428.752 479.456 446.252 516.956 489.252 516.956" stroke="#FFF8C5" stroke-width="12" stroke-linecap="round"/>
<rect width="365" height="690" rx="57" fill="#B5B5B5"/>
<rect x="18" y="17" width="330" height="655" rx="57" fill="#D9D9D9"/>
<rect x="24" y="24" width="317" height="642" rx="57" fill="#FEFBDF"/>
<rect y="699" width="365" height="690" rx="57" fill="#B5B5B5"/>
<rect x="18" y="716" width="330" height="655" rx="57" fill="#D9D9D9"/>
<rect x="24" y="723" width="317" height="642" rx="57" fill="#9D6558"/>
<path d="M105.607 783.763C140.884 822.389 104.708 838.642 130.982 875.516" stroke="#7B4C3D" stroke-width="12" stroke-linecap="round"/>
<path d="M138.004 1065.14C116.632 968.534 220.376 1080.31 216.331 1010.2" stroke="#7B4C3D" stroke-width="12" stroke-linecap="round"/>
<path d="M191.695 1280.68C320.525 1322.72 192.335 1164.1 288.856 1178.65" stroke="#7B4C3D" stroke-width="12" stroke-linecap="round"/>
<path d="M214 786C330.5 768.5 250.139 920.721 295.5 947" stroke="#7B4C3D" stroke-width="12" stroke-linecap="round"/>
<path d="M71.5 1122.5C50.0001 1171 67.5001 1208.5 110.5 1208.5" stroke="#7B4C3D" stroke-width="12" stroke-linecap="round"/>
<path d="M93.359 92.219C128.636 130.845 92.4596 147.098 118.733 183.972" stroke="#FFFDF1" stroke-width="12" stroke-linecap="round"/>
<path d="M125.756 373.6C104.384 276.99 208.128 388.765 204.083 318.653" stroke="#FFFDF1" stroke-width="12" stroke-linecap="round"/>
<path d="M179.447 589.137C308.276 631.175 180.087 472.554 276.607 487.104" stroke="#FFFDF1" stroke-width="12" stroke-linecap="round"/>
<path d="M201.752 94.456C318.252 76.9561 237.891 229.177 283.252 255.456" stroke="#FFFDF1" stroke-width="12" stroke-linecap="round"/>
<path d="M59.2516 430.956C37.7517 479.456 55.2517 516.956 98.2516 516.956" stroke="#FFFDF1" stroke-width="12" stroke-linecap="round"/>
<ellipse cx="80.8833" cy="607.788" rx="7.5" ry="5" transform="rotate(43.4553 80.8833 607.788)" fill="#1E1E1E"/>
<ellipse cx="121.883" cy="80.788" rx="7.5" ry="5" transform="rotate(43.4553 121.883 80.788)" fill="#1E1E1E"/>
<ellipse cx="306.883" cy="128.788" rx="7.5" ry="5" transform="rotate(107.625 306.883 128.788)" fill="#1E1E1E"/>
<ellipse cx="80.8833" cy="221.788" rx="7.5" ry="5" transform="rotate(43.4553 80.8833 221.788)" fill="#1E1E1E"/>
<ellipse cx="177.883" cy="493.788" rx="7.5" ry="5" transform="rotate(172.636 177.883 493.788)" fill="#1E1E1E"/>
<ellipse cx="260.883" cy="339.788" rx="7.5" ry="5" transform="rotate(140.938 260.883 339.788)" fill="#1E1E1E"/>
<ellipse cx="282.883" cy="616.788" rx="7.5" ry="5" transform="rotate(125.655 282.883 616.788)" fill="#1E1E1E"/>
<ellipse cx="108.883" cy="430.788" rx="7.5" ry="5" transform="rotate(124.973 108.883 430.788)" fill="#1E1E1E"/>
<ellipse cx="179.883" cy="155.788" rx="7.5" ry="5" transform="rotate(43.4553 179.883 155.788)" fill="#1E1E1E"/>
<ellipse cx="191.883" cy="272.788" rx="7.5" ry="5" transform="rotate(71.5031 191.883 272.788)" fill="#1E1E1E"/>
<ellipse cx="78.8833" cy="338.788" rx="7.5" ry="5" transform="rotate(105.021 78.8833 338.788)" fill="#1E1E1E"/>
<ellipse cx="275.883" cy="430.788" rx="7.5" ry="5" transform="rotate(80.9014 275.883 430.788)" fill="#1E1E1E"/>
</svg>
