<svg width="601" height="1312" viewBox="0 0 601 1312" fill="none" xmlns="http://www.w3.org/2000/svg">
<path d="M293.062 1274.19C296.276 1285.28 297.883 1290.83 300.361 1292.23C302.501 1293.44 305.12 1293.44 307.26 1292.23C309.739 1290.83 311.351 1285.29 314.574 1274.2L520.749 565.06C522.479 559.109 523.345 556.134 522.602 554.017C521.954 552.17 520.563 550.678 518.765 549.904C516.705 549.017 513.676 549.674 507.62 550.988L278.072 600.791C276.03 601.234 275.01 601.456 274.016 601.387C273.137 601.326 272.277 601.1 271.481 600.72C270.583 600.291 269.803 599.596 268.244 598.206L66.5416 418.39C57.8609 410.652 53.5206 406.782 50.6695 406.914C48.2083 407.028 45.9881 408.427 44.8238 410.599C43.4751 413.114 45.0938 418.699 48.3314 429.869L293.062 1274.19Z" fill="#9A713A"/>
<path d="M293.059 1274.19C296.273 1285.28 297.881 1290.82 300.359 1292.23C302.499 1293.44 305.118 1293.44 307.259 1292.23C309.738 1290.83 311.349 1285.28 314.571 1274.2L522.094 560.102C523.868 553.996 524.756 550.943 523.987 548.804C523.316 546.939 521.885 545.445 520.05 544.694C517.947 543.833 514.858 544.587 508.682 546.096L273.358 603.569C271.217 604.092 270.146 604.354 269.103 604.294C268.18 604.242 267.276 604.007 266.444 603.603C265.504 603.147 264.696 602.397 263.081 600.897L75.1076 426.38C63.7723 415.856 58.1046 410.594 54.405 410.713C51.2128 410.815 48.3139 412.602 46.7878 415.407C45.019 418.659 47.1725 426.087 51.4796 440.943L293.059 1274.19Z" fill="#9A713A"/>
<path d="M312.519 1280.93C310.632 1287.1 309.276 1290.42 307.439 1291.46C305.3 1292.67 302.68 1292.67 300.539 1291.46C298.059 1290.06 296.446 1284.51 293.222 1273.42L292.417 1270.65L299.5 1258.38L312.519 1280.93ZM333.608 1208.18L314.857 1272.98L302.965 1252.38L331.047 1203.74L333.608 1208.18ZM296.037 1252.38L290.098 1262.67L278.053 1221.23L296.037 1252.38ZM327.584 1197.74L299.501 1246.38L271.418 1197.74L299.5 1149.1L327.584 1197.74ZM335.922 1200.18L334.512 1197.74L338.754 1190.39L335.922 1200.18ZM354.673 1135.38L345.714 1166.34L331.048 1191.74L302.965 1143.1L331.047 1094.46L354.673 1135.38ZM296.037 1143.1L268.969 1189.98L250.16 1125.28L267.953 1094.46L296.037 1143.1ZM327.584 1088.46L299.501 1137.1L271.418 1088.46L299.5 1039.82L327.584 1088.46ZM375.737 1062.58L356.986 1127.39L334.512 1088.46L362.595 1039.82L375.737 1062.58ZM264.49 1088.46L247.841 1117.3L229.032 1052.59L236.406 1039.82L264.49 1088.46ZM296.037 1033.82L267.954 1082.46L239.871 1033.82L267.953 985.178L296.037 1033.82ZM359.131 1033.82L331.048 1082.46L302.964 1033.82L331.047 985.178L359.131 1033.82ZM396.803 989.787L378.051 1054.59L366.058 1033.82L394.141 985.177L396.803 989.787ZM232.943 1033.82L226.713 1044.61L214.081 1001.15L232.943 1033.82ZM327.584 979.178L299.501 1027.82L271.417 979.178L299.5 930.537L327.584 979.178ZM264.489 979.178L236.407 1027.82L208.324 979.177L236.406 930.537L264.489 979.178ZM390.678 979.178L362.595 1027.82L334.512 979.177L362.595 930.537L390.678 979.178ZM399.116 981.794L397.605 979.177L402.15 971.305L399.116 981.794ZM296.036 924.538L267.953 973.179L239.87 924.537L267.953 875.896L296.036 924.538ZM359.131 924.538L331.048 973.178L302.964 924.537L331.047 875.896L359.131 924.538ZM417.868 916.992L409.111 947.251L394.141 973.178L366.058 924.537L394.141 875.896L417.868 916.992ZM232.942 924.538L205.585 971.922L186.777 907.215L204.859 875.896L232.942 924.538ZM264.489 869.896L236.406 918.538L208.323 869.896L236.406 821.255L264.489 869.896ZM390.678 869.897L362.595 918.538L334.511 869.896L362.594 821.255L390.678 869.897ZM327.583 869.897L299.501 918.538L271.417 869.896L299.5 821.255L327.583 869.897ZM438.933 844.196L420.182 908.998L397.605 869.895L425.688 821.255L438.933 844.196ZM201.395 869.896L184.457 899.234L165.649 834.528L173.312 821.255L201.395 869.896ZM296.036 815.255L267.954 863.897L239.87 815.255L267.953 766.614L296.036 815.255ZM359.13 815.256L331.048 863.897L302.964 815.255L331.047 766.615L359.13 815.256ZM232.942 815.255L204.859 863.896L176.776 815.255L204.859 766.614L232.942 815.255ZM422.225 815.255L394.141 863.896L366.058 815.255L394.141 766.614L422.225 815.255ZM459.999 771.399L441.247 836.203L429.152 815.255L457.235 766.613L459.999 771.399ZM169.849 815.255L163.329 826.547L150.109 781.066L169.849 815.255ZM327.583 760.615L299.5 809.256L271.417 760.614L299.5 711.973L327.583 760.615ZM390.678 760.615L362.595 809.255L334.512 760.614L362.595 711.972L390.678 760.615ZM264.489 760.615L236.407 809.255L208.323 760.613L236.406 711.972L264.489 760.615ZM453.772 760.614L425.688 809.255L397.605 760.614L425.688 711.972L453.772 760.614ZM201.395 760.615L173.313 809.255L145.229 760.613L173.312 711.973L201.395 760.615ZM462.311 763.406L460.699 760.614L465.55 752.213L462.311 763.406ZM422.225 705.973L394.141 754.615L366.058 705.973L394.141 657.332L422.225 705.973ZM296.036 705.974L267.954 754.615L239.87 705.972L267.953 657.332L296.036 705.974ZM481.063 698.602L472.511 728.158L457.235 754.615L429.152 705.973L457.235 657.332L481.063 698.602ZM232.942 705.973L204.86 754.614L176.776 705.972L204.859 657.332L232.942 705.973ZM359.131 705.973L331.048 754.614L302.965 705.972L331.048 657.332L359.131 705.973ZM169.849 705.973L142.201 753.86L128.318 706.095C128.204 705.701 128.146 705.504 128.163 705.317C128.178 705.152 128.234 704.992 128.325 704.854C128.429 704.698 128.596 704.579 128.931 704.342L157.317 684.268L169.849 705.973ZM453.771 651.333L425.688 699.974L397.605 651.332L425.688 602.691L453.771 651.333ZM173.313 699.973L162.237 680.789L199.673 654.316L173.313 699.973ZM264.489 651.333L236.407 699.973L208.323 651.332L211.379 646.039L246.923 620.906L264.489 651.333ZM327.584 651.332L299.501 699.973L271.418 651.332L299.501 602.69L327.584 651.332ZM390.678 651.333L362.595 699.973L334.512 651.332L362.595 602.691L390.678 651.333ZM502.129 625.806L483.377 690.609L460.699 651.332L488.782 602.69L502.129 625.806ZM422.225 596.692L394.141 645.333L366.058 596.69L374.463 582.133L409.309 574.322L422.225 596.692ZM485.319 596.691L457.235 645.333L429.152 596.691L446.937 565.886L465.174 561.798L485.319 596.691ZM267.954 645.332L251.843 617.426L266.171 607.296C266.854 606.812 267.196 606.571 267.561 606.373C267.885 606.197 268.223 606.047 268.57 605.924C268.962 605.786 269.371 605.694 270.187 605.511L294.031 600.165L267.954 645.332ZM359.131 596.691L331.048 645.332L303.718 597.994L353.446 586.845L359.131 596.691ZM518.094 551.922C519.477 552.753 520.541 554.042 521.086 555.583C521.836 557.703 520.97 560.696 519.238 566.682L504.441 617.813L492.246 596.691L518.094 551.922ZM488.782 590.692L471.308 560.423L506.03 552.64C508.172 552.16 509.936 551.766 511.414 551.494L488.782 590.692ZM362.595 590.691L359.581 585.47L366.506 583.918L362.595 590.691ZM425.688 590.691L415.444 572.947L438.98 567.67L425.688 590.691Z" fill="#E0A756"/>
<path d="M137.294 698.428L129.837 703.702C129.218 704.14 128.909 704.358 128.615 704.371C128.358 704.382 128.107 704.294 127.913 704.125C127.692 703.932 127.586 703.567 127.376 702.839L115.001 659.974L115.047 659.894L137.294 698.428ZM174.676 653.895L157.018 684.478L142.214 694.949L118.511 653.894L146.593 605.255L174.676 653.895ZM182.096 666.746L168.727 676.199L178.141 659.895L182.096 666.746ZM226.898 635.064L187.016 663.267L181.604 653.894L209.687 605.254L226.898 635.064ZM143.129 599.255L115.047 647.894L107.982 635.659L93.9697 587.119L115.046 550.614L143.129 599.255ZM206.224 599.254L178.141 647.894L150.058 599.254L178.141 550.613L206.224 599.254ZM266.323 604.44L263.644 609.08L231.818 631.586L213.151 599.254L229.787 570.44L266.323 604.44ZM225.28 566.246L209.687 593.254L181.604 544.612L188.744 532.246L225.28 566.246ZM174.676 544.613L146.594 593.254L118.511 544.612L146.594 495.973L174.676 544.613ZM111.582 544.614L91.6601 579.119L72.9384 514.265L83.499 495.973L111.582 544.614ZM184.237 528.052L178.141 538.612L157.886 503.529L184.237 528.052ZM142.912 489.596L143.129 489.972L115.047 538.612L86.9638 489.972L106.659 455.858L142.912 489.596ZM80.0351 489.973L70.6289 506.265L51.9072 441.409L51.9521 441.331L80.0351 489.973ZM67.1083 419.054L102.152 451.665L83.499 483.972L55.4169 435.331L65.6152 417.667C66.0979 418.116 66.5964 418.577 67.1083 419.054ZM51.0195 406.849C53.1503 406.783 56.1171 409.014 61.0898 413.504L51.9521 429.331L45.3066 417.819C44.4933 414.166 44.347 411.857 45.0908 410.493C46.2803 408.313 48.5367 406.926 51.0195 406.849Z" fill="#C78F50"/>
<ellipse cx="410.497" cy="528.427" rx="95.2531" ry="95.2529" fill="#e8d5a3"/>
<ellipse cx="190.502" cy="528.427" rx="95.2531" ry="95.2529" fill="#e8d5a3"/>
<ellipse cx="285.761" cy="528.427" rx="95.2531" ry="95.2529" fill="#e8d5a3"/>
<ellipse cx="505.747" cy="528.427" rx="95.2531" ry="95.2529" fill="#e8d5a3"/>
<ellipse cx="95.2531" cy="528.427" rx="95.2531" ry="95.2529" fill="#e8d5a3"/>
<ellipse cx="293.414" cy="290.294" rx="290.295" ry="290.294" fill="#e8d5a3"/>
<path d="M92.9834 232.461C140.47 123.743 207.514 183.702 259.676 95.2522" stroke="#8b6914" stroke-opacity="0.48" stroke-width="24" stroke-linecap="round"/>
<path d="M258.298 369.672C211.664 368.425 190.189 358.52 164.685 315.625" stroke="#8b6914" stroke-opacity="0.48" stroke-width="24" stroke-linecap="round"/>
<path d="M462.659 142.879C531.83 184.836 542.037 256.274 500.079 348.124" stroke="#8b6914" stroke-opacity="0.48" stroke-width="24" stroke-linecap="round"/>
<rect x="293.493" y="443.680" width="9" height="9" rx="3" fill="#3d2000" transform="rotate(-24.60 297.993 448.180)"/>
<rect x="315.949" y="179.307" width="7" height="7" rx="3" fill="#3d2000" transform="rotate(-0.78 319.449 182.807)"/>
<rect x="303.371" y="180.562" width="10" height="10" rx="3" fill="#3d2000" transform="rotate(3.58 308.371 185.562)"/>
<rect x="139.659" y="440.846" width="8" height="8" rx="3" fill="#3d2000" transform="rotate(3.33 143.659 444.846)"/>
<rect x="303.738" y="354.258" width="8" height="8" rx="3" fill="#3d2000" transform="rotate(-18.60 307.738 358.258)"/>
</svg>
