<svg width="633" height="652" viewBox="0 0 633 652" fill="none" xmlns="http://www.w3.org/2000/svg">
<circle cx="433.854" cy="552.393" r="99.5731" fill="#e8d5a3"/>
<circle cx="203.888" cy="552.393" r="99.5731" fill="#e8d5a3"/>
<circle cx="303.461" cy="552.393" r="99.5731" fill="#e8d5a3"/>
<circle cx="533.427" cy="552.393" r="99.5731" fill="#e8d5a3"/>
<circle cx="104.315" cy="552.393" r="99.5731" fill="#e8d5a3"/>
<circle cx="303.461" cy="303.461" r="303.461" fill="#e8d5a3"/>
<rect x="332.874" y="437.205" width="9" height="9" rx="3" fill="#3d2000" transform="rotate(6.17 337.374 441.705)"/>
<rect x="178.432" y="373.224" width="7" height="7" rx="3" fill="#3d2000" transform="rotate(0.72 181.932 376.724)"/>
<rect x="318.312" y="140.819" width="10" height="10" rx="3" fill="#3d2000" transform="rotate(-29.61 323.312 145.819)"/>
<rect x="345.786" y="380.612" width="8" height="8" rx="3" fill="#3d2000" transform="rotate(-21.63 349.786 384.612)"/>
<rect x="366.744" y="437.757" width="8" height="8" rx="3" fill="#3d2000" transform="rotate(-19.70 370.744 441.757)"/>
<path d="M101.943 243.005C151.584 129.355 221.668 192.034 276.196 99.5723" stroke="#8b6914" stroke-opacity="0.48" stroke-width="24" stroke-linecap="round"/>
<path d="M274.752 386.438C226.003 385.135 203.554 374.78 176.894 329.94" stroke="#8b6914" stroke-opacity="0.48" stroke-width="24" stroke-linecap="round"/>
<path d="M488.383 149.359C560.691 193.219 571.361 267.898 527.501 363.914" stroke="#8b6914" stroke-opacity="0.48" stroke-width="24" stroke-linecap="round"/>
</svg>
