<svg width="633" height="652" viewBox="0 0 633 652" fill="none" xmlns="http://www.w3.org/2000/svg">
<circle cx="433.854" cy="552.393" r="99.5731" fill="#f5f0e8"/>
<circle cx="203.888" cy="552.393" r="99.5731" fill="#f5f0e8"/>
<circle cx="303.461" cy="552.393" r="99.5731" fill="#f5f0e8"/>
<circle cx="533.427" cy="552.393" r="99.5731" fill="#f5f0e8"/>
<circle cx="104.315" cy="552.393" r="99.5731" fill="#f5f0e8"/>
<circle cx="303.461" cy="303.461" r="303.461" fill="#f5f0e8"/>
<ellipse cx="474.461" cy="179.718" rx="4.000" ry="2.800" fill="#1a1a1a" transform="rotate(42.43 474.461 179.718)"/>
<ellipse cx="467.199" cy="422.120" rx="3.000" ry="2.100" fill="#1a1a1a" transform="rotate(-33.85 467.199 422.120)"/>
<ellipse cx="446.316" cy="420.964" rx="5.000" ry="3.500" fill="#2a2a2a" transform="rotate(-36.06 446.316 420.964)"/>
<ellipse cx="505.679" cy="262.366" rx="3.500" ry="2.450" fill="#1a1a1a" transform="rotate(36.19 505.679 262.366)"/>
<ellipse cx="129.507" cy="257.963" rx="4.500" ry="3.150" fill="#2a2a2a" transform="rotate(11.00 129.507 257.963)"/>
<path d="M101.943 243.005C151.584 129.355 221.668 192.034 276.196 99.5723" stroke="#c8b89a" stroke-opacity="0.48" stroke-width="24" stroke-linecap="round"/>
<path d="M274.752 386.438C226.003 385.135 203.554 374.78 176.894 329.94" stroke="#c8b89a" stroke-opacity="0.48" stroke-width="24" stroke-linecap="round"/>
<path d="M488.383 149.359C560.691 193.219 571.361 267.898 527.501 363.914" stroke="#c8b89a" stroke-opacity="0.48" stroke-width="24" stroke-linecap="round"/>
</svg>
